<svg role="img" class="icon-svg" xmlns="http://www.w3.org/2000/svg" viewBox="0 0 200 200"><g><g><g><path class="cls-1" d="M18.29,85.12A3.29,3.29,0,0,1,16.65,79L49.83,59.82a3.29,3.29,0,1,1,3.29,5.69L19.94,84.67A3.31,3.31,0,0,1,18.29,85.12Z"/><path class="cls-1" d="M85.68,171.85A3.29,3.29,0,0,1,84,165.71L100.88,156a3.29,3.29,0,0,1,3.29,5.7l-16.84,9.72A3.29,3.29,0,0,1,85.68,171.85Z"/><path class="cls-1" d="M44,84.12A3.29,3.29,0,0,1,42.36,78l16.85-9.72A3.29,3.29,0,0,1,62.5,74L45.65,83.68A3.23,3.23,0,0,1,44,84.12Z"/><path class="cls-1" d="M68.74,168.46a3.29,3.29,0,0,1-1.65-6.14l33.19-19.16a3.29,3.29,0,0,1,3.29,5.7L70.38,168A3.26,3.26,0,0,1,68.74,168.46Z"/></g><path class="cls-2" d="M120.74,172.1l-14.42-63.57-31.6,18.24-2.26,19.38L57.18,155,49.3,124.2,26.75,102.3,42,93.48l17.73,7.42L91.38,82.65l-47.67-44L62.4,27.9,127.09,62l35.32-20.39A14.31,14.31,0,0,1,174,40.14a15,15,0,0,1,9,7.18A14.4,14.4,0,0,1,184.5,58.5a14.72,14.72,0,0,1-7.24,9.07L142,87.91l-2.61,73.4Zm-10-73.74,14.42,63.58,7.8-4.51L135.59,84l38.47-22.21a8.17,8.17,0,0,0,4.09-5,7.84,7.84,0,0,0-.89-6.14,8.49,8.49,0,0,0-5.13-4.17,7.79,7.79,0,0,0-6.34.82L127.23,69.55,62.54,35.42l-7.8,4.5,47.67,44L60.23,108.23l-17.74-7.42-4.91,2.83,17.64,17.13,6.19,24.17,4.9-2.83,2.26-19.39Z"/></g></g></svg>
