<svg role="img" class="icon-svg" xmlns="http://www.w3.org/2000/svg" viewBox="0 0 200 200"><g><path class="cls-1" d="M152.38,35.51,140.46,80a4,4,0,0,1-1.89,2.47,4.11,4.11,0,0,1-2,.55,4.21,4.21,0,0,1-1.05-.14L91,71l2.11-7.87,35,9.38L101.94,27.15l-28.24,48-7-4.13L98.46,17A4.06,4.06,0,0,1,102,15h0a4.06,4.06,0,0,1,3.5,2l29.66,51.36,9.37-35Zm28,112.06L149.51,93l-7.08,4,27.44,48.45H117.55l25.61-25.6-5.76-5.76-32.55,32.55a4.07,4.07,0,0,0,0,5.76L137.4,185l5.76-5.75-25.61-25.61h59.3a4.06,4.06,0,0,0,3.54-6.07ZM33,145.45l26.16-45.31,9.37,35L76.38,133,64.47,88.55a4.08,4.08,0,0,0-5-2.88L15,97.58l2.1,7.87,35-9.38L22.45,147.43a4.08,4.08,0,0,0,3.49,6.1l62.66.52.07-8.14Z"/></g></svg>
