<svg role="img" class="icon-svg" xmlns="http://www.w3.org/2000/svg" viewBox="0 0 200 200"><g><g><path class="cls-1" d="M158.22,102.3V74.72a8.82,8.82,0,0,0-8.83-8.82H50.1a8.82,8.82,0,0,0-8.83,8.82V102.3l39.46,23.89,20.11-9.46,17.22,10.81Z"/><path class="cls-2" d="M184.65,68.14,103.29,15.92a4.78,4.78,0,0,0-5.22.05L19,68.12a1.77,1.77,0,0,0-.17.12,4.83,4.83,0,0,0-2,3.87v100.4a4.79,4.79,0,0,0,4.79,4.79H182.06a4.8,4.8,0,0,0,4.79-4.79V72.16A4.77,4.77,0,0,0,184.65,68.14ZM24,76a4.73,4.73,0,0,1,2.15-4l74.54-49.19L177.47,72a4.86,4.86,0,0,1,2.2,4v9.72L120.17,124l-10.92-8.57a11.92,11.92,0,0,0-14.8,0l-10.39,8.24L24,85.19Zm0,91.73v-74l54.08,34.71L25.76,170A2.39,2.39,0,0,1,24,167.72Zm13.14,2.4,61.73-49a4.79,4.79,0,0,1,5.91,0l62.49,49Zm142.49-2.4a2.4,2.4,0,0,1-1.17,2l-52.34-41,53.51-34.36Z"/></g></g></svg>
