<svg role="img" class="icon-svg" xmlns="http://www.w3.org/2000/svg" viewBox="0 0 200 200"><g><g><path class="cls-1" d="M100.38,189.66l-.78-.2c-.67-.18-67.32-18.23-68.73-101.57-.44-26.15,0-34.54,0-34.88L31,50.85l69.5-31.19,68.82,31.25V87.83c0,87.39-67.47,101.54-68.15,101.67ZM37.9,55.53c-.1,3.89-.24,13.5.08,32.24,1.24,73.93,55.1,92.38,62.61,94.59,7.53-1.77,61.63-17.17,61.63-94.53V55.48l-61.74-28Z"/><path class="cls-2" d="M92.4,133.85V109h16.72v24.88h20.61V100.61h12.44L100.75,63.28l-41.4,37.33H71.79v33.24Z"/></g></g></svg>
