<svg role="img" class="icon-svg" xmlns="http://www.w3.org/2000/svg" viewBox="0 0 200 200"><g><g><path class="cls-1" d="M158.58,75.12c-3.24-1.1-6.71-2.1-10.34-3,6.85-22.29,6-39.56-3.77-45.42C134,20.4,117.62,29.66,101.6,46,85.23,28.37,69.05,19.93,58.83,25.6c-8.12,4.5-11,16.68-8.2,34.3a123.52,123.52,0,0,0,2.92,13.16,124,124,0,0,0-12.94,4.07c-16.67,6.34-25.77,15-25.61,24.23s9.54,17.57,26.42,23.34A119.43,119.43,0,0,0,53.08,128c-6.2,20.76-6.28,38.35,3.83,44.43a14.44,14.44,0,0,0,7.55,2c9.71,0,22-8,34.25-20.26a122.94,122.94,0,0,0,9.14,8.94c9.83,8.59,18.82,13,26.12,13a14.84,14.84,0,0,0,7.31-1.81c10.29-5.7,11.65-24.1,5.2-47.58a123.39,123.39,0,0,0,12.91-4.06c16.67-6.34,25.77-15,25.61-24.23S175.46,80.89,158.58,75.12ZM136.51,30.7A9.19,9.19,0,0,1,141.33,32c7.53,4.53,6.56,20.21.69,38.82a187.37,187.37,0,0,0-23.41-3,189.37,189.37,0,0,0-12.92-17.13C117.15,38.72,128.52,30.7,136.51,30.7Zm-13.73,82.15c-2.63,4.38-5.47,8.71-8.44,12.93-4.54.36-9.18.59-13.89.67-5.3.09-10.52,0-15.61-.28q-4.16-6.39-8-13.33-3.33-6-6.19-12c2.46-5,5.13-9.84,7.95-14.53,2.5-4.17,5.2-8.3,8-12.33,4.24-.31,8.55-.52,12.93-.59l3.91,0c3.94,0,7.83.1,11.65.3,2.9,4.39,5.64,8.91,8.16,13.45,2.33,4.21,4.54,8.56,6.58,13C127.64,104.42,125.27,108.71,122.78,112.85Zm10.24-5.6c2.12,5.07,4,10.14,5.62,15.09-5.17,1.1-10.65,2-16.34,2.66q3-4.43,5.71-9Q130.65,111.6,133,107.25Zm-23.41,25c-3.49,4.58-7.11,8.94-10.75,12.94-3.31-3.91-6.59-8.16-9.77-12.69q3.7.12,7.47.12l4,0C103.6,132.5,106.62,132.38,109.61,132.21Zm-32.34-6.58c-5.65-.51-11.1-1.25-16.25-2.2,1.79-5.09,3.91-10.33,6.28-15.57q2,4,4.2,7.94C73.36,119.16,75.3,122.44,77.27,125.63Zm-9.86-31.9C65,88.21,63,82.78,61.26,77.51c5.51-1.17,11.36-2.11,17.45-2.8-1.84,2.78-3.63,5.6-5.34,8.45Q70.25,88.37,67.41,93.73ZM91.3,67.56c3.28-4.33,6.68-8.47,10.11-12.31,3.19,3.79,6.35,7.87,9.39,12.12-3.74-.12-7.53-.15-11.35-.09Q95.34,67.35,91.3,67.56Zm37.31,16.58c-1.9-3.43-3.86-6.74-5.85-9.94,6,.55,11.83,1.35,17.29,2.4C138.12,82,135.84,87.51,133.28,93Q131.07,88.6,128.61,84.14Zm-72-25.21c-2.36-14.67-.49-24.88,5.13-28a9.48,9.48,0,0,1,4.71-1.16c8.2,0,19.56,8.41,30.83,20.81A199.84,199.84,0,0,0,83.25,68.13a192.94,192.94,0,0,0-23.76,3.53A118.52,118.52,0,0,1,56.66,58.93Zm-13.26,60c-14.06-4.8-22.19-11.25-22.3-17.67s7.79-13.15,21.68-18.43A116.1,116.1,0,0,1,55.3,78.91a194,194,0,0,0,8.56,21.83A194.84,194.84,0,0,0,55,122.18,114.46,114.46,0,0,1,43.4,118.93Zm16.65,48.28c-7.41-4.46-6.59-19.72-1-37.94a187.86,187.86,0,0,0,22.34,2.81,190,190,0,0,0,13.22,17.53C81,163.53,67.61,171.74,60.05,167.21Zm78.27,1.8c-5.62,3.12-15.27-.71-26.46-10.49a113.91,113.91,0,0,1-8.92-8.75,195.88,195.88,0,0,0,14.76-18.16,193.6,193.6,0,0,0,22.72-3.42C146,147.82,146.48,164.48,138.32,169Zm18.9-52a117.62,117.62,0,0,1-12.48,3.91,188.82,188.82,0,0,0-8-20.68A191.43,191.43,0,0,0,146.31,78c3.63.86,7.08,1.84,10.29,2.94,14.06,4.81,22.19,11.25,22.3,17.68S171.11,111.72,157.22,117Z"/><circle class="cls-2" cx="100" cy="100" r="17.35"/></g></g></svg>
