<svg role="img" class="icon-svg" xmlns="http://www.w3.org/2000/svg" viewBox="0 0 200 200"><g><g><g><rect class="cls-1" x="37.09" y="57.37" width="39.85" height="32.38" rx="7.47"/><rect class="cls-1" x="37.09" y="97.23" width="39.85" height="32.38" rx="7.47"/><rect class="cls-1" x="37.09" y="134.59" width="39.85" height="32.38" rx="7.47"/><rect class="cls-1" x="81.93" y="57.37" width="39.85" height="32.38" rx="7.47"/><rect class="cls-1" x="81.93" y="97.23" width="39.85" height="32.38" rx="7.47"/><rect class="cls-1" x="81.93" y="134.59" width="39.85" height="32.38" rx="7.47"/><rect class="cls-1" x="126.76" y="57.37" width="39.85" height="32.38" rx="7.47"/><rect class="cls-1" x="126.76" y="97.23" width="39.85" height="32.38" rx="7.47"/></g><path class="cls-2" d="M166.61,32.46H134.22A24.16,24.16,0,0,0,134,28c-.79-5.53-3.72-9.37-8-10.53a10.73,10.73,0,0,0-11.34,2.92,16.17,16.17,0,0,0-3.27,12.08H91.18A24.19,24.19,0,0,0,91,28c-.8-5.53-3.72-9.37-8-10.53a10.73,10.73,0,0,0-11.34,2.92,16.11,16.11,0,0,0-3.27,12.08H37.09A17.47,17.47,0,0,0,19.65,49.9V169.46A17.47,17.47,0,0,0,37.09,186.9H166.61a17.46,17.46,0,0,0,17.44-17.44V49.9A17.46,17.46,0,0,0,166.61,32.46Zm-46-6.8c.32-.35,1.06-1.18,3.38-.56,1.49.41,2,2.7,2.24,4a17.48,17.48,0,0,1,.12,3.34h-6.84A8.56,8.56,0,0,1,120.57,25.66Zm-43,0c.32-.35,1.07-1.18,3.38-.56,1.5.41,2,2.7,2.25,4a17.48,17.48,0,0,1,.12,3.34H76.43A8.6,8.6,0,0,1,77.53,25.66Zm99.05,143.8a10,10,0,0,1-10,10H37.09a10,10,0,0,1-10-10V49.9a10,10,0,0,1,10-10H81.61c-1,2.54-2.43,4.63-4,5.59a4,4,0,0,0,4.15,6.75c3.86-2.37,6.65-7.16,8.16-12.34h34.7c-1,2.54-2.42,4.63-4,5.59a4,4,0,0,0,2.07,7.33,4,4,0,0,0,2.08-.58c3.85-2.37,6.64-7.16,8.15-12.34h33.64a10,10,0,0,1,10,10Z"/></g></g></svg>
