<svg role="img" class="icon-svg" xmlns="http://www.w3.org/2000/svg" viewBox="0 0 200 200"><g><g><circle class="cls-1" cx="100.47" cy="102.99" r="24.04"/><path class="cls-2" d="M174.32,130.36v40.11L127.86,124l-6.37,6.38,46.44,46.44h-40.1v9h51a4.51,4.51,0,0,0,4.51-4.51v-51Zm0-59V31.24L127.86,77.69l-6.37-6.38,46.44-46.44h-40.1v-9h51a4.5,4.5,0,0,1,4.51,4.5v51Zm-149,59v40.11L71.79,124l6.38,6.38L31.73,176.84H71.84v9h-51a4.5,4.5,0,0,1-4.5-4.51v-51Zm0-59V31.24L71.79,77.69l6.38-6.38L31.73,24.87H71.84v-9h-51a4.49,4.49,0,0,0-4.5,4.5v51Z"/></g></g></svg>
