<svg role="img" class="icon-svg" xmlns="http://www.w3.org/2000/svg" viewBox="0 0 200 200"><g><polygon class="cls-1" points="118.58 15.35 118.58 34.52 152.46 34.52 73.06 113.22 86.43 126.59 165.83 47.89 165.83 81.77 185 81.77 185 15.35 118.58 15.35"/><path class="cls-2" d="M147.51,184.65H35a20,20,0,0,1-20-20V52.15a20,20,0,0,1,20-20h68.08v8.75H35A11.25,11.25,0,0,0,23.75,52.15V164.67A11.24,11.24,0,0,0,35,175.9H147.51a11.24,11.24,0,0,0,11.23-11.23V94.34h8.75v70.33A20,20,0,0,1,147.51,184.65Z"/></g></svg>
