<svg role="img" class="icon-svg" xmlns="http://www.w3.org/2000/svg" viewBox="0 0 200 200"><g><g><g><path class="cls-1" d="M88,72.45,86.23,109h27.54l-1.72-36.58Z"/><path class="cls-1" d="M91.4,26.4,89.25,53.94h22.37L109.47,26.4Z"/><path class="cls-1" d="M115.93,127.53l3,46h-37l3-46Z"/></g><path class="cls-2" d="M172,177.2H27.71a12,12,0,0,1-9.51-4.81A13.91,13.91,0,0,1,15.08,162l.05-.29L40.1,33a12.44,12.44,0,0,1,4.17-7,12.41,12.41,0,0,1,8.43-3.27h94.65a13.7,13.7,0,0,1,8.17,2.63A11.23,11.23,0,0,1,160,33.19l25,128.81a13.94,13.94,0,0,1-3.21,10.48A12.31,12.31,0,0,1,172,177.2Zm-.14-7.22a5.18,5.18,0,0,0,4.23-2,6.79,6.79,0,0,0,1.67-5l-25-128.87a4,4,0,0,0-1.58-2.82A6.37,6.37,0,0,0,147.42,30H52.67a5.25,5.25,0,0,0-3.53,1.38l-.19.17a5.26,5.26,0,0,0-1.78,2.91L22.24,162.93a6.65,6.65,0,0,0,1.55,4.89l.16.2a4.79,4.79,0,0,0,3.79,2Z"/></g></g></svg>
