<svg role="img" class="icon-svg" xmlns="http://www.w3.org/2000/svg" viewBox="0 0 200 200"><g><g><path class="cls-1" d="M84.94,55.1h87.43c4.94,0,7.54,4,5.81,9L168,93.39l-105-.9,9.9-28.41A13.9,13.9,0,0,1,84.94,55.1Z"/><path class="cls-1" d="M129.32,103.18h32.75a1.64,1.64,0,0,1,1.74,1.53,1.6,1.6,0,0,1-.19.86l-6.88,19.77a3.7,3.7,0,0,1-3.22,2.39H120.77a1.64,1.64,0,0,1-1.73-1.54h0a1.65,1.65,0,0,1,.18-.85l6.89-19.76A3.71,3.71,0,0,1,129.32,103.18Z"/><path class="cls-2" d="M178.54,89.73H55.6a13.9,13.9,0,0,0-12.07,9L22,160.32V53.76A1.81,1.81,0,0,1,23.86,52H71.39l5,6.84a13.78,13.78,0,0,1,6.39-3.37L75,44.79H23.86a9,9,0,0,0-9,9v119a9,9,0,0,0,4,7.47,6.53,6.53,0,0,0,4.57,1.64H146.4a13.91,13.91,0,0,0,12.08-9l25.86-74.16C186.08,93.76,183.48,89.73,178.54,89.73ZM50.28,101.08a6.88,6.88,0,0,1,5.32-4.19H177.18l-4.89,14.68-20.56,59a6.91,6.91,0,0,1-5.32,4.19H37.31l-12.67-.13Z"/></g></g></svg>
