<svg role="img" class="icon-svg" xmlns="http://www.w3.org/2000/svg" viewBox="0 0 200 200"><g><path class="cls-1" d="M160.13,79.83A14.28,14.28,0,0,1,146,65.73L146,62H48.45l-.07,3.78a14.26,14.26,0,0,1-14.09,14.1l-3.78.06V124l3.78.06a14.28,14.28,0,0,1,14.1,14.1l.06,3.78H146l.06-3.78a14.28,14.28,0,0,1,14.1-14.1l3.78-.06V79.89Zm-3.9,37a21.91,21.91,0,0,0-17.5,17.5h-83a21.91,21.91,0,0,0-17.5-17.5V87.13a21.89,21.89,0,0,0,17.49-17.5h83a21.91,21.91,0,0,0,17.5,17.5Zm-144-73.15V160.28h170V43.64Zm162.32,109H19.89V51.32H174.53Z"/><circle class="cls-2" cx="97.21" cy="101.96" r="26.67"/></g></svg>
