<svg role="img" class="icon-svg" xmlns="http://www.w3.org/2000/svg" viewBox="0 0 200 200"><g><g><path class="cls-1" d="M113.93,73.82a5,5,0,0,0-3.65,1.55,5.07,5.07,0,0,0-1.54,3.73,4.84,4.84,0,0,0,1.54,3.65,5.27,5.27,0,0,0,7.3,0,4.82,4.82,0,0,0,1.55-3.65,5.1,5.1,0,0,0-1.55-3.73A5,5,0,0,0,113.93,73.82Zm-1.3,16.56A16.84,16.84,0,0,0,106.79,93q-2.76,1.78-6.32,4.39l-3.09,2.26c-.33.22-.49.38-.49.49a2.94,2.94,0,0,0,.16.65l.49.65A5.34,5.34,0,0,0,98,102c0,.06.24,0,.56-.24l3.74-2.44c1.51-1,2.51-1.27,3-.89s.57,1.38.25,3a59.81,59.81,0,0,1-1.46,6.33q-2.61,9.75-3.73,16.07c-.55,3.9.54,5.74,3.24,5.52a15.57,15.57,0,0,0,5.84-2.43l8.12-5.68c.32-.11.46-.27.4-.49a2.78,2.78,0,0,0-.4-.81l-.34-.48c-.32-.33-.59-.38-.81-.17l-1,.65c-1.62,1.09-2.81,1.84-3.57,2.28-1.4.54-2.21.48-2.43-.17s0-2.54.81-5.68q.64-2.76,2.6-10.06l2.59-9.41a11.53,11.53,0,0,0,.17-4.22,2.44,2.44,0,0,0-2.51-2.33A3,3,0,0,0,112.63,90.38Z"/></g><path class="cls-2" d="M135.29,42.85H151a16,16,0,1,0,0-6h-21.7V60.24h6Zm31.44-13a10,10,0,1,1-10,10A10,10,0,0,1,166.73,29.82ZM77.8,46.76V60.24h6V46.76a16,16,0,1,0-6,0ZM80.8,21a10,10,0,1,1-10,10A10,10,0,0,1,80.8,21Zm98.33,131.47a15.9,15.9,0,0,0-11.32-4.73h-.05a16,16,0,0,0-15.69,12.77l-20.44,0,.05-17.54h28.15a5.11,5.11,0,0,0,5.11-5.11V65.36a5.11,5.11,0,0,0-5.11-5.12H56.19a5.11,5.11,0,0,0-5.11,5.12V98.58H35.24V74.13a16,16,0,1,0-6,0v30.45H51.08v33.23a5.11,5.11,0,0,0,5.11,5.11H72.42l0,14.17a14.11,14.11,0,0,0-11.15,13.75A14.14,14.14,0,0,0,75.3,185h0a14.11,14.11,0,0,0,3-27.9l0-14.18h47.26l-.07,23.53,26.37.06a16,16,0,0,0,15.73,13.28h0a16,16,0,0,0,11.37-27.32ZM22.21,58.39a10,10,0,1,1,10,10A10,10,0,0,1,22.21,58.39ZM83.46,170.91A8.14,8.14,0,0,1,75.34,179h0a8.13,8.13,0,0,1-8.1-8.14,8.13,8.13,0,0,1,8.12-8.09h0A8.13,8.13,0,0,1,83.46,170.91ZM57.08,66.25H158.94v70.67H57.08ZM174.83,170.88a10,10,0,0,1-7.07,2.91h0a10,10,0,0,1,0-20h0a10,10,0,0,1,7,17.14Z"/></g></svg>
