<svg role="img" class="icon-svg" xmlns="http://www.w3.org/2000/svg" viewBox="0 0 200 200"><g><path class="cls-1" d="M147.87,185H52.13a29,29,0,0,1-29.28-29.28,26.25,26.25,0,0,1,5-15.62l42.9-74.81V56.41a13,13,0,0,1-7.85-12.14V36.05a20.3,20.3,0,0,1,6.24-14.81A20.32,20.32,0,0,1,83.92,15h32.16a20.35,20.35,0,0,1,14.81,6.24,20.35,20.35,0,0,1,6.24,14.81v8.22a13.08,13.08,0,0,1-7.85,12.15v8.87l42.9,74.81a26.29,26.29,0,0,1,5,15.62A29,29,0,0,1,147.87,185ZM83.92,25.68a9.73,9.73,0,0,0-7.25,3.11,9.73,9.73,0,0,0-3.11,7.26v8.22a2.33,2.33,0,0,0,.67,1.84,2.3,2.3,0,0,0,1.84.68,5.34,5.34,0,0,1,5.34,5.34V66.71a5.27,5.27,0,0,1-.71,2.66L36.94,145.66a4.39,4.39,0,0,1-.32.51,15.6,15.6,0,0,0-3.08,9.55,18.29,18.29,0,0,0,18.59,18.6h95.74a18.29,18.29,0,0,0,18.59-18.6,15.67,15.67,0,0,0-3.08-9.56,3.27,3.27,0,0,1-.32-.5L119.3,69.37a5.27,5.27,0,0,1-.71-2.66V52.13a5.34,5.34,0,0,1,5.34-5.34,2.36,2.36,0,0,0,2.52-2.52V36.05a9.74,9.74,0,0,0-3.12-7.26,9.74,9.74,0,0,0-7.25-3.11Z"/><path class="cls-2" d="M111.39,110.23a53.13,53.13,0,0,0-8.42,1.63,49.35,49.35,0,0,0-10.92,4.42A42.21,42.21,0,0,0,81.28,125,40.69,40.69,0,0,0,73,139.16a23,23,0,0,1-2.8-3.54,15.62,15.62,0,0,1-2.66-8.26,18.22,18.22,0,0,1,2.21-8,27.17,27.17,0,0,1,7.09-9,29,29,0,0,1,12.69-5.9c2.95-.6,7.73-1.33,14.32-2.22q12.4-1.77,17.12-3,8-2.07,9.45-5a99.19,99.19,0,0,1-3.69,13.88Q121.43,124,113.16,134q-11.37,13.88-26.72,13.87a12.53,12.53,0,0,1-4.28-1l-3,7.23-6-2.06.88-2.07a129.16,129.16,0,0,1,7.38-16.09,49.46,49.46,0,0,1,12.11-14.32q8.55-6.65,21.25-9.45Z"/></g></svg>
