<svg role="img" class="icon-svg" xmlns="http://www.w3.org/2000/svg" viewBox="0 0 200 200"><g><path class="cls-1" d="M79.32,76.09a20.18,20.18,0,0,0,3.42-8.34h25.42V87.86a16.19,16.19,0,0,0,16.31,16.31h8V83.3l12.91,12.9H181V79.89H152.18L132.44,60.54V59l19.74-19.73H181V23.35H145.35l-12.91,12.9V15h-8a16.2,16.2,0,0,0-16.31,16.32V51.43H82.74A30.11,30.11,0,0,0,68.13,31.7a31.21,31.21,0,0,0-24.67-3.42,31.52,31.52,0,0,0-19.92,15,30.87,30.87,0,0,0-3.42,24.48A31.21,31.21,0,0,0,31.51,85.2,30.66,30.66,0,0,0,50.86,92l38,68.68H126ZM63.19,71a15.71,15.71,0,0,1-11.57,4.74A15.71,15.71,0,0,1,40.05,71a16,16,0,0,1,0-22.77,15.75,15.75,0,0,1,11.57-4.74A15.75,15.75,0,0,1,63.19,48.2a16,16,0,0,1,0,22.77Z"/><path class="cls-2" d="M165.08,160.71H35.3a15.31,15.31,0,0,0-11.19,4.75A15.71,15.71,0,0,0,19.37,177v8H181v-8a15.75,15.75,0,0,0-4.74-11.57A15.33,15.33,0,0,0,165.08,160.71Z"/></g></svg>
