<svg role="img" class="icon-svg" xmlns="http://www.w3.org/2000/svg" viewBox="0 0 200 200"><g><g><path class="cls-1" d="M99,164.66c23.19,0,42-12.22,42-27.29,0-11.69-11.32-21.66-27.21-25.55L99,135.27,84.32,111.79C68.35,115.67,57,125.66,57,137.37,57,152.44,75.77,164.66,99,164.66Z"/><path class="cls-2" d="M99,34.13v0A24.42,24.42,0,0,0,74.8,58.7c0,.16,0,.3,0,.46A24.58,24.58,0,1,0,99,34.13Zm16.9,25A17.34,17.34,0,1,1,99,41.37a17.13,17.13,0,0,1,16.9,17.33ZM99,34.13v0A24.42,24.42,0,0,0,74.8,58.7c0,.16,0,.3,0,.46A24.58,24.58,0,1,0,99,34.13Zm16.9,25A17.34,17.34,0,1,1,99,41.37a17.13,17.13,0,0,1,16.9,17.33ZM99,34.13v0A24.42,24.42,0,0,0,74.8,58.7c0,.16,0,.3,0,.46A24.58,24.58,0,1,0,99,34.13Zm16.9,25A17.34,17.34,0,1,1,99,41.37a17.13,17.13,0,0,1,16.9,17.33Zm68.91,115.69-19.48-72.22a6.93,6.93,0,0,0-6.69-5.12l-33.22-.11,8-13.95a44,44,0,0,0-4.7-55.19l-1.06-1a41.25,41.25,0,0,0-58.31,1,44,44,0,0,0-5.55,53.89l8.77,15.32-31.07,0a6.89,6.89,0,0,0-6.67,5.12l-19.5,72.22a6.69,6.69,0,0,0-.25,1.8,6.93,6.93,0,0,0,6.94,6.92H178.07a7.65,7.65,0,0,0,1.8-.23A6.94,6.94,0,0,0,184.76,174.83ZM70,78.54l-.07-.16-.09-.13a36.72,36.72,0,0,1,4.61-44.94c.32-.32.62-.61.94-.91a34,34,0,0,1,48,.91,36.68,36.68,0,0,1,3.93,46l-.19.25-.13.27L99,129,80.82,97.42ZM22.37,176.29l19.32-71.56,34.93,0,14.3,24.88,4,7a3,3,0,0,0,.35.53,4.26,4.26,0,0,0,1.46,1.37,4.5,4.5,0,0,0,6.14-1.67l2.4-4.18,16-28,37.08.11,19.32,71.56Z"/></g></g></svg>
