<svg role="img" class="icon-svg" xmlns="http://www.w3.org/2000/svg" viewBox="0 0 200 200"><g><path class="cls-1" d="M178,38.75V152.68a8.58,8.58,0,0,1-8.57,8.57H30.57A8.58,8.58,0,0,1,22,152.68V38.75H178m7-7H15V152.68a15.57,15.57,0,0,0,15.57,15.57H169.43A15.57,15.57,0,0,0,185,152.68V31.75Z"/><rect class="cls-2" x="37.26" y="59.53" width="48.24" height="48.24"/><rect class="cls-2" x="37.53" y="115.96" width="127.21" height="8.16"/><rect class="cls-2" x="37.53" y="132.31" width="95.94" height="8.16"/><rect class="cls-2" x="95.35" y="97.15" width="64.62" height="8.51"/><rect class="cls-2" x="95.35" y="79.4" width="39.88" height="8.51"/><rect class="cls-2" x="95.35" y="61.64" width="71.63" height="8.51"/></g></svg>
