<svg role="img" class="icon-svg" xmlns="http://www.w3.org/2000/svg" viewBox="0 0 200 200"><g><g><path class="cls-1" d="M119,55.19a24.94,24.94,0,0,0-18.44,7.7,25.18,25.18,0,0,0-7.7,18.64,25.18,25.18,0,0,0,7.7,18.64,25.92,25.92,0,0,0,36.87,0,25.18,25.18,0,0,0,7.7-18.64,25.18,25.18,0,0,0-7.7-18.64A24.94,24.94,0,0,0,119,55.19m0,83.92a115.87,115.87,0,0,0-32.32,4.32c-9.49,2.77-17,6.44-22.26,10.92a21.05,21.05,0,0,0-5.06,5.88,10.25,10.25,0,0,0-1.33,5v9.12H180v-9.12a10.25,10.25,0,0,0-1.33-5,21.17,21.17,0,0,0-5.05-5.88c-5.29-4.48-12.78-8.15-22.27-10.92A115.8,115.8,0,0,0,119,139.11m0-92.21A33.11,33.11,0,0,1,143.32,57a33.36,33.36,0,0,1,10.12,24.5A33.36,33.36,0,0,1,143.32,106a34.22,34.22,0,0,1-48.61,0,33.36,33.36,0,0,1-10.12-24.5A33.36,33.36,0,0,1,94.71,57,33.13,33.13,0,0,1,119,46.9Zm0,83.91a123.27,123.27,0,0,1,34.63,4.66q16,4.67,25.31,12.56t9.32,17.21v17.42H49.76V165.24q0-9.31,9.31-17.21t25.32-12.56A123.22,123.22,0,0,1,119,130.81Z"/><path class="cls-2" d="M76.72,83.68a16.47,16.47,0,0,1-21.88-1.25h0a16.48,16.48,0,1,1,23.3-23.3A16.32,16.32,0,0,1,81,62.93a42.51,42.51,0,0,1,23-21L93.27,31.17c-1.16-1.16-2.21-1.28-3.13-.35l-10.09,7.3-8.7-2.45L66.13,24.2a1.61,1.61,0,0,0-.18-.52,1.94,1.94,0,0,0-2.6-.87L45.28,27.66c-1.39.47-2,1.28-1.73,2.44l1.38,12.53-6.61,6.6L25.79,47.85a2.13,2.13,0,0,0-2.43,1.74L18.48,67.67a1.94,1.94,0,0,0,.87,2.6,1.58,1.58,0,0,0,.53.18l11.48,5.22,2.43,8.69L26.15,94.78c-.92.92-.81,2,.35,3.13l13.21,13.21a2.32,2.32,0,0,0,3.13.34l10.41-7.63,8.35,2.08,5.22,11.48a2,2,0,0,0,.17.52,2,2,0,0,0,2.61.87l18.07-4.86a2.47,2.47,0,0,0,2-1.85A42.18,42.18,0,0,1,76.72,83.68Z"/></g></g></svg>
