<svg role="img" class="icon-svg" xmlns="http://www.w3.org/2000/svg" viewBox="0 0 200 200"><g><g><path class="cls-1" d="M79.16,55.12l.4-3.43-.39-3.82,8-6.13c.51-.51.51-1.27,0-2.29L79.94,26.84a1.93,1.93,0,0,0-.19-.38,1.52,1.52,0,0,0-2.1-.39h0l-9.17,3.45-5.73-3.44-1.53-9.56A1.81,1.81,0,0,0,59.3,15H44.79c-1.28,0-1.91.51-1.91,1.53l-1.53,9.56-6.13,3.44-9.17-3.44a1.51,1.51,0,0,0-2.29.76L16.5,39.45c-.51,1-.39,1.78.38,2.29l7.64,6.12v7.26l-7.64,6.13a1.65,1.65,0,0,0-.38,2.29l7.26,12.61a1.5,1.5,0,0,0,1.9,1,1.76,1.76,0,0,0,.39-.19l9.17-3.44,6.11,3.44,1.53,9.92c0,1,.64,1.52,1.91,1.52H59.29a1.8,1.8,0,0,0,1.91-1.52l1.53-9.92,5.73-3.44,9.17,3.43a1.23,1.23,0,0,0,.38.19,1.52,1.52,0,0,0,1.92-.95l7.25-12.6a1.91,1.91,0,0,0,0-2.29ZM51.84,64.29a12.81,12.81,0,1,1,12.8-12.8h0a12.8,12.8,0,0,1-12.8,12.8Z"/><path class="cls-2" d="M124.55,147.62A23.41,23.41,0,1,1,148,124.21,23.44,23.44,0,0,1,124.55,147.62Zm0-39.8a16.39,16.39,0,1,0,16.39,16.39A16.41,16.41,0,0,0,124.55,107.82ZM113.12,185c-3.29,0-5.65-2.18-6.15-5.69l-2-13a58.5,58.5,0,0,1-6.85-4.1l-12.33,5a6.65,6.65,0,0,1-4.67,0,5.83,5.83,0,0,1-3.19-2.79L66.56,144.74a5.9,5.9,0,0,1,1.29-7.84l.48-.36,10.2-8.23-.28-4.15.27-3.76-10.34-8.34a6.3,6.3,0,0,1-1.59-8.51L77.81,84.48A5.79,5.79,0,0,1,81,81.19a6.57,6.57,0,0,1,4.72,0l12.41,5.38A46.08,46.08,0,0,1,105,82.43l2-13.29a5.91,5.91,0,0,1,2-3.92,6,6,0,0,1,4.31-1.49h22.8a6,6,0,0,1,4.3,1.71,5.73,5.73,0,0,1,1.86,3.68l2,13.24a37.19,37.19,0,0,1,6.92,4.12L163.3,81.2a6.66,6.66,0,0,1,8.36,3.18l10.83,19a6.06,6.06,0,0,1-.57,8.17,6.44,6.44,0,0,1-.64.53l-10.65,8.32.27,3.73-.28,4.13,10.62,8.3a5.68,5.68,0,0,1,1.77,7.62,8.11,8.11,0,0,1-.54.75l-11.08,19.81a6.67,6.67,0,0,1-8,2.4l-12.28-5a43.23,43.23,0,0,1-6.92,4.14l-2,12.78a6.14,6.14,0,0,1-6,5.89Zm.86-6.4Zm-.11-.62h21.42l2.55-16.54,1.8-.76a36,36,0,0,0,8.71-5.23l1.61-1.3,15.77,6.39,10.55-18.91-12.92-10.1.5-7.36-.5-7L176.44,107,165.57,87.86,150,94.64l-1.67-1.42a30.72,30.72,0,0,0-8.57-5.14l-1.88-.74-2.49-16.59H113.81l-2.47,16.51-1.79.78a39.79,39.79,0,0,0-8.77,5.26l-1.65,1.31L83.89,88,72.83,106.78l13,10.46-.5,6.94.49,7.31L73,141.81l10.74,18.61,15.4-6.24,1.59,1.2a49.15,49.15,0,0,0,8.92,5.35l1.71.79ZM84,161l0,0ZM72.59,107.2v0Zm92.88-19.51ZM136.09,70.75h0Zm-23.26,0h0Z"/></g></g></svg>
