<svg role="img" class="icon-svg" xmlns="http://www.w3.org/2000/svg" viewBox="0 0 200 200"><g><g><g><path class="cls-1" d="M184.27,97.85h0a7.21,7.21,0,0,1-7.21,7.21H164.62a7.21,7.21,0,0,1-7.22-7.21h0a7.22,7.22,0,0,1,7.22-7.22h12.44A7.21,7.21,0,0,1,184.27,97.85Z"/><path class="cls-1" d="M100,16h0a7.21,7.21,0,0,1,7.21,7.22V35.67A7.21,7.21,0,0,1,100,42.89h0a7.21,7.21,0,0,1-7.21-7.22V23.23A7.21,7.21,0,0,1,100,16Z"/><path class="cls-1" d="M141.8,58.49h0a7.21,7.21,0,0,1,0-10.2l8.8-8.8a7.21,7.21,0,0,1,10.2,0h0a7.22,7.22,0,0,1,0,10.2l-8.8,8.8A7.21,7.21,0,0,1,141.8,58.49Z"/><path class="cls-1" d="M39.2,39.49h0a7.21,7.21,0,0,1,10.2,0l8.8,8.8a7.21,7.21,0,0,1,0,10.2h0a7.21,7.21,0,0,1-10.2,0l-8.8-8.8A7.22,7.22,0,0,1,39.2,39.49Z"/><path class="cls-1" d="M42.6,97.85h0a7.21,7.21,0,0,1-7.22,7.21H22.94a7.21,7.21,0,0,1-7.21-7.21h0a7.21,7.21,0,0,1,7.21-7.22H35.38A7.22,7.22,0,0,1,42.6,97.85Z"/></g><path class="cls-2" d="M85,159.15a10.3,10.3,0,0,1-7.65-3.46,11.1,11.1,0,0,1-3-7.83V136.92a48.18,48.18,0,0,1-15.47-16.18,46.17,46.17,0,0,1-6.51-24,47.23,47.23,0,0,1,6.33-24A46.39,46.39,0,0,1,76,55.43a47.27,47.27,0,0,1,23.62-6.32h.7A47.31,47.31,0,0,1,124,55.44a46.47,46.47,0,0,1,17.32,17.33,47.28,47.28,0,0,1,6.32,24,46.13,46.13,0,0,1-6.53,24,48.21,48.21,0,0,1-15.45,16.15v11a11.16,11.16,0,0,1-3.06,7.84,10.26,10.26,0,0,1-7.9,3.38H85ZM99.65,56.43a40,40,0,0,0-20,5.35A39,39,0,0,0,65.06,76.4a40,40,0,0,0-5.37,20.31A39.07,39.07,0,0,0,65.19,117,40.88,40.88,0,0,0,79.86,131.7l1.82,1.07v15.15a3.92,3.92,0,0,0,1.06,2.81,3.16,3.16,0,0,0,2.4,1.09h29.63a3.14,3.14,0,0,0,2.42-1,3.92,3.92,0,0,0,1.13-2.81V132.77l1.81-1.07a40.77,40.77,0,0,0,14.66-14.65,38.9,38.9,0,0,0,5.51-20.28A40.07,40.07,0,0,0,135,76.42a39.25,39.25,0,0,0-14.62-14.63,40,40,0,0,0-20-5.36h-.7ZM92.79,186a11.36,11.36,0,0,1-11.23-11.19v-10.9h36.88v10.87A11.36,11.36,0,0,1,107.24,186Zm-3.9-14.77v3.55a4,4,0,0,0,3.93,3.9h14.39a4,4,0,0,0,3.9-3.93v-3.52Z"/></g></g></svg>
