<svg role="img" class="icon-svg" xmlns="http://www.w3.org/2000/svg" viewBox="0 0 200 200"><g><path class="cls-1" d="M100,26.1,15,102.71H43.21v70.66H84.73a45.69,45.69,0,0,1-4.59-6.51H49.72V96.2H31.94l68-61.34L168.07,96.2H156a45.49,45.49,0,0,1,5.46,6.51H185Z"/><path class="cls-2" d="M120.25,89.79c-24.06,0-43.57,19.94-43.57,44.54s19.51,44.54,43.57,44.54,43.58-19.94,43.58-44.54S144.32,89.79,120.25,89.79Zm28,49.38H124.13v24.12a3.88,3.88,0,1,1-7.75,0V139.17H92.26a3.88,3.88,0,1,1,0-7.75h24.12V107.3a3.88,3.88,0,0,1,7.75,0v24.12h24.12a3.88,3.88,0,0,1,0,7.75Z"/></g></svg>
