<svg version="1.1" id="Layer_1" xmlns="http://www.w3.org/2000/svg" xmlns:xlink="http://www.w3.org/1999/xlink" x="0px" y="0px"
	 viewBox="0 0 240 160" style="enable-background:new 0 0 240 160;" xml:space="preserve">
<style type="text/css">
	.st0{clip-path:url(#SVGID_2_);}
	.st1{fill-rule:evenodd;clip-rule:evenodd;fill:#104F63;}
	.st2{fill-rule:evenodd;clip-rule:evenodd;fill:#E96D63;}
	.st3{fill:#FFFFFF;}
	.st4{fill-rule:evenodd;clip-rule:evenodd;fill:#FFFFFF;}
	.st5{fill:#003F51;}
	.st6{fill:#8ECBA5;}
	.st7{fill:#E96D63;}
	.st8{fill:#104F63;}
</style>
<g id="Group_338">
	<g id="Group_330">
		<g>
			<defs>
				<rect id="SVGID_1_" x="40.6" y="1.6" width="163.8" height="101.4"/>
			</defs>
			<clipPath id="SVGID_2_">
				<use xlink:href="#SVGID_1_"  style="overflow:visible;"/>
			</clipPath>
			<g class="st0">
				<g id="Group_329">
					<path id="Path_553" class="st1" d="M186.9,85.5c-3.4,39.3-29.9,71.3-66.8,71.3s-66.8-31.9-66.8-71.3s29.9-71.3,66.8-71.3
						S186.9,46.1,186.9,85.5"/>
				</g>
			</g>
		</g>
	</g>
	<g id="Group_331">
		<path id="Path_554" class="st2" d="M127.3,33.1c11.6,0,21,9.3,21,20.9c0,4.2-1.3,8.3-3.6,11.8v-7.7l-22.1-7.4l-11.8,7.1v9
			c-7.1-9.2-5.3-22.3,3.8-29.4C118.1,34.6,122.6,33.1,127.3,33.1z"/>
		<path id="Path_555" class="st3" d="M133.4,45.5c0.4-0.1,0.8,0,1.1,0.2c0.6,0.2,1.1,0.7,1.4,1.2c0,0.1,0,0.2-0.1,0.3
			c-0.6,0.4-1.3,0.6-2,0.7 M133.8,47.9C133.8,47.9,133.8,48,133.8,47.9L133.8,47.9c0.9,0.3,3.6,0.9,5.6-0.9c0.1-0.1,0.2-0.1,0.4-0.1
			c1.4,0.3,2.7,1.1,3.5,2.4c0,0,0.6-1.4-1.1-3c-0.2-0.2-0.4-0.2-0.6-0.2h-1.7c0.1,0.1,0.1,0.2,0.1,0.4c0,0.1,0,0.1,0,0.2l-0.1-0.2
			c-0.1-0.1-0.1-0.3-0.2-0.4l0,0l0,0c0,0,0-0.1-0.2-0.2c-0.4-0.1-0.9-0.1-1.3,0c0,0-0.5,0.1-1.1-0.6c-0.1-0.1-0.2-0.3-0.3-0.4
			c-0.1-0.2-0.4-0.5-1.3-0.3c-1.2,0.2-5.1,0.9-5.9,0.9c1.3,0.3,2.6,0.4,3.9,0.1L133.8,47.9z"/>
	</g>
	<g id="Group_332">
		<path id="Path_556" class="st4" d="M142.3,63.4v-4.2l-19.8-6.5l-9.4,5.5l-0.2,0.1h0v11.1l2.6,0.5v-9.3l1-0.6v27l2.7-1.7V58.7
			l1-0.6v26.7l6-3.6v-2l8.4,1.9l5.2,1.2v2.4l1.5,0.8v-2.3l1-0.3v-2.6l-1-0.2v-3.3l1-0.3v-2.7l-1-0.2v-3.3l1-0.3v-2.6l-1-0.3v-3.3
			L142.3,63.4z M139.9,79.7l-5.2-1.2l-8.4-1.9v-4l8.4,2l5.2,1.2V79.7z M139.9,73.2l-5.2-1.3l-8.4-2v-4l8.4,2.1l5.2,1.3V73.2z
			 M139.9,66.6l-5.2-1.3l-8.4-2.1v-4l8.4,2.2l5.2,1.3V66.6z M143.2,102.6V87.2l-5.4-2.3v18.3l2.6-0.2l3,1v-1.4H143.2z M136.5,84.5
			L136.5,84.5L136.5,84.5l-6.8-3l-0.1,0V104l6.9-0.3v-1.1L136.5,84.5z M128.3,81.5L128.3,81.5l-11.7,6.8v14.6l11.8,0.5v-0.8
			L128.3,81.5z M127.4,85.1l-9.8,5.2v-1.1l9.8-5.2V85.1z M101.6,69v3.6l12.8,2.4v3.4l-5.8-1l-7-1.2V78l7,1.2l5.8,1v3.3l-5.8-0.9
			l-7-1.1v1.8l7,1l5.8,0.9v3.3l-5.8-0.8l-7-0.9v1.7l7,0.9l5.8,0.7v3.3l-5.9-0.7l-6.9-0.8v1.8l12.8,1.8l-0.1,3.9l-12.8-1.5v4.4
			l13.9,1c0,0,0-8,0.1-8V72L101.6,69z M99.7,69.1l-9.3,3.5v29.9c3.8,2.1,9.2,0.8,9.2,0.8L99.7,69.1L99.7,69.1z"/>
		<path class="st4" d="M153.7,72.7v29.9c-3.8,2.1-9.2,0.8-9.2,0.8v-0.8h0.1v-18h-1.1V68.4l5,2.2l0.2,0.1v32.4h1.2V71.2L153.7,72.7z"
			/>
		<polygon class="st5" points="136.5,102.6 136.5,102.6 136.5,84.5 136.5,84.5 136.5,84.5 		"/>
		<polygon class="st5" points="128.3,81.5 128.4,102.6 128.2,102.6 128.2,81.6 		"/>
		<polygon class="st5" points="129.6,81.5 129.6,102.6 129.6,102.6 129.6,81.5 		"/>
	</g>
	<path id="Path_559" class="st3" d="M29.2,103c8.6-0.7,17.1-1.2,25.7-1.3c-0.1-0.4-0.2-0.9-0.2-1.4C45.9,100.8,37.4,101.7,29.2,103"
		/>
	<path class="st1" d="M218.4,105c-11.2-0.7-22.5-1.2-33.8-1.7c0.2-0.5,0.3-1,0.5-1.5c8.4,0.1,16.8,0.6,25.1,1.3
		c-7.2-1.1-14.5-1.9-22-2.4c10.4-37.8-11.9-76.9-49.7-87.2C100.7,3,61.6,25.2,51.3,63.1c-3.4,12.3-3.4,25.2,0,37.5
		c-7.6,0.5-14.9,1.3-22.1,2.4c8.4-0.7,16.8-1.1,25.2-1.3c0.2,0.5,0.3,1,0.5,1.5c-11.3,0.5-22.6,1.1-33.8,1.7H218.4z M53.9,100.4
		c-0.4,0-0.8,0.1-1.2,0.1C42.5,63.8,63.7,25.7,100.3,15c36.9-10.8,75.5,10.4,86.3,47.4c3.6,12.4,3.7,25.7,0.2,38.1l-1.3-0.1
		c1.7-6,2.5-12.2,2.5-18.4c0-37.7-30.5-68.3-68.3-68.3c-37.7,0-68.3,30.5-68.3,68.3C51.4,88.2,52.3,94.4,53.9,100.4z M98.6,20.6
		c33.9-11.7,70.9,6.3,82.5,40.3c4.7,13.7,4.7,28.6,0,42.3c-2.7-0.1-5.4-0.2-8.1-0.3c-8.6-0.5-29-0.8-52.8-1
		c-12.3-0.1-23.5,0.1-32.6,0.4c-9.8,0.2-19.6,0.5-29.3,0.8C46.6,69.2,64.7,32.3,98.6,20.6z"/>
	<g id="Group_335">
		<path class="st6" d="M94.8,44.5l-1.6-1.3l-0.4-0.2v0c-2.5-1.5-10.5-6.1-13.3-6c1.8-0.7,3.6-1.1,5.5-1.4l-1.3-1.9l1.7,1.4
			c1-0.4,2-0.7,3.1-0.7c1.6,0,0.4-0.1,0.4-0.1l-2.3-1.6c0.4,0.2,3.4,1.6,4,1.5c0.7-0.1,1.3-0.2,2-0.2l5.9-0.7
			c-2.4-1.3-8.9-4.3-12.9-4.8h-0.1c0,0-11-1.5-15.7,5.9c0,0-3.1-5.9,1.2-16.2c0,0-9,9.2-9.7,15.7l2.5,1.2l-3.1,0.2l-0.2,1.4
			c-3.2-2-7.1-2.4-10.7-1.2c-3.4,1.1-6.4,3.1-8.6,5.9l1.2,0.2l-1.7,1.1c-1.5,2-2.3,4.4-2.3,6.8c0,0,6.1-6.9,14-6.4l1.9-2.2L53.6,43
			l2.5,0.2c-2.6,0.8-5,2-7,3.8l0.8,0.4c0,0-8.5,4.6-8.2,18.1c0.8-1.5,4.3-4.9,5.1-5.7l-0.2-2.6l0.9,1.5l3-1.9L50,53.3l1.5,2.8
			l3.1-1.8l0.1-3.2l0.8,2.7c0,0,3.1-1.5,4.3-1.4c0,0-1.2,5.5-0.7,9c0.4,2.7,1.8,8,4.1,11c-0.3,0.1-0.6,0.3-0.9,0.5
			c-1.5,0.9-2.7,2.2-3.4,3.8h0.6l-0.7,0.7c-0.5,1.1-0.6,2.3-0.3,3.5c0,0,2.1-4,6-4.6L65,75v1l1.2-0.2c-1.1,0.7-2.1,1.5-2.9,2.6
			l0.4,0.1c0,0-3.5,3.2-1.8,9.6c0.5-1.1,1.1-2.2,1.8-3.3l-0.4-1.2l0.6,0.6L65,83l-0.7-1.6l1,1.2l1.3-1.2l-0.3-1.5l0.7,1.2
			c0.6-0.5,1.2-0.8,1.9-1.1c0,1.5,0.3,2.9,0.7,4.4c0.6,1.6,2.5,5,4.5,5.5c-0.4-0.4-0.7-0.9-0.8-1.4c-0.1-0.6-0.6-3-0.6-3l-1.3-1.6
			l1.2,0.8l0.2-1.2l-1.4-1.1l1.3,0.6c0.1-0.6,0.3-1.2,0.5-1.8l-1.1-0.7l1.3,0.3c0-0.8,0.2-1.5,0.4-2.2l0.5,0.8c0,0.1,0,0.2,0,0.4
			c0.1,0.4,0.4,0.7,0.8,0.9c1.1,1.8,2.7,4,3.8,4.6c0,0-0.7-2-1.2-3.9c4.2,4.2,9,13.3,12.6,20.9l-0.2-29.2
			c-6.9-7.6-9.7-17.2-11.1-19.4c0.2-0.2,0.4-0.5,0.6-0.7c1.7,0.2,3.4,0.6,5,1.2L84,50.9l1.2,3.2c0,0,2.2,0.7,4,1.3l3.2,1.1
			c-1.3-2-6.2-8.5-8.1-10.2c0.4,0.1,6.7,2.4,8.5,3.3v0c0.5,0.2,1,0.4,1.4,0.6V48l1,2.6c0,0,4.6,0.8,5.4,1.4
			C100.5,51.7,97.8,46.9,94.8,44.5z M71.6,70.2L71.6,70.2c-0.1,0-2.2-2.5-1.3-7.9c0,0-3.3,5.4-2.8,8.6l1.3,0.3l-1.5,0.4v0.7
			c-1-0.3-2-0.4-3-0.2c-0.1-0.3-0.1-0.6-0.1-0.9c0.1-1.3,0.3-6.3,0.3-6.3l-1.8-3.9l2,2.2l1-2.2l-2.3-3l2.2,1.8
			c0.5-1.2,1-2.4,1.8-3.4l-1.9-1.9l2.4,1.3c0,0,1.3-4.1,1.9-4.2c0,0,0.2,0.7,0.5,1.8c-0.3,1.1,0.1,2.2,1,2.9
			c1.2,3.4,2.8,7.7,4.4,9.9C73.9,66.8,72.3,68.3,71.6,70.2z M83.1,74.5c0.4,1.2,0.8,2.3,1.2,3.6c0,0,0,0,0,0c1.2,3.9,2.4,7.9,3.5,12
			l0,0.1c-3-4.2-6.3-8.2-9.8-12c0.1-0.1,0.2-0.3,0.2-0.4c0.8-0.1,1.7-0.1,2.5,0l-0.4-1.3l1,1.4c0,0,2.2,0.2,3.1,0.3
			c-1.2-1.5-2.8-2.8-4.5-3.8c0,0,2.3,0.4,3.1,0.7L83.1,74.5z M81.9,71L81.9,71c-1.3-0.4-3.9-1.1-5.4-0.7c0.8-0.5,1.6-1,2.4-1.3
			l-0.8-0.8l1,0.5c0.4-0.3,0.9-0.5,1.4-0.7l0.2,0C81.1,69,81.5,70,81.9,71z M80.6,67.9L80.6,67.9l-1.3-0.5c0.1,0,0.7,0.1,1.2,0.2
			L80.6,67.9z M79.6,65.5c-0.4,0-0.8,0-1.3,0.1c-0.6,0.1-1.2,0.2-1.8,0.4c-0.1-1.6-0.4-4.4-0.5-7.2C77.4,61,78.6,63.2,79.6,65.5z"/>
		<path class="st6" d="M205.8,49.5c-0.1-2.5-0.9-4.8-2.4-6.8l-1.7-1.1l1.2-0.2c-2.2-2.8-5.2-4.8-8.6-5.9c-3.6-1.2-7.5-0.7-10.7,1.3
			l-0.2-1.4l-3.1-0.2l2.5-1.3c-0.7-6.5-9.8-15.6-9.8-15.6c4.4,10.2,1.3,16.2,1.3,16.2c-4.8-7.4-15.7-5.8-15.7-5.8
			c-4,0.5-10.5,3.5-12.8,4.9l0,0l5.9,0.6c0.7,0,1.3,0.1,2,0.2c0.5,0.1,3.9-1.5,3.9-1.5l-2.4,1.7c0,0-1.2,0.1,0.4,0.1
			c1.1,0.1,2.1,0.3,3.1,0.7l1.7-1.4l-1.3,1.9c1.9,0.2,3.7,0.7,5.5,1.4c-2.8-0.1-10.8,4.5-13.3,6v0.1l-0.4,0.2l-1.6,1.3
			c-3,2.6-5.8,7.6-5.8,7.6c0.8-0.7,5.5-1.5,5.5-1.5l1-2.6v2.4c0.4-0.3,0.9-0.5,1.4-0.7v-0.1c1.9-1,8.5-3.4,8.5-3.4
			c-1.9,1.6-6.8,8.2-8.1,10.2l3.2-1.1c1.9-0.6,4-1.3,4-1.3l1.2-3.2l-0.2,2.9c1.6-0.7,3.2-1.1,4.9-1.2c0.2,0.3,0.4,0.5,0.6,0.7
			c-1.3,2.2-4,14.2-11,19.3V102c3.5-7.6,8.3-16.5,12.5-20.7c-0.5,1.9-1.2,3.9-1.2,3.9c1-0.5,2.6-2.8,3.7-4.6
			c0.4-0.2,0.6-0.5,0.8-0.9c0-0.1,0-0.2,0-0.4l0.5-0.8c0.2,0.7,0.4,1.5,0.4,2.2l1.3-0.3l-1.1,0.7c0.2,0.6,0.4,1.2,0.5,1.8l1.3-0.6
			l-1.4,1.1l0.2,1.2l1.2-0.8l-1.3,1.7c0,0-0.5,2.4-0.6,3c-0.2,0.5-0.4,1-0.8,1.4c1.9-0.5,3.8-3.9,4.4-5.5c0.4-1.4,0.6-2.9,0.7-4.4
			c0.7,0.3,1.3,0.7,1.9,1.1L178,80l-0.3,1.6l1.3,1.2l1-1.2l-0.7,1.6l1.2,1.2l0.6-0.6l-0.4,1.2c0.7,1,1.3,2.1,1.8,3.3
			c1.7-6.4-1.9-9.5-1.9-9.5l0.4-0.1c-0.8-1.1-1.8-1.9-2.9-2.6l1.2,0.2l-0.1-1.1l0.7,1.3c3.8,0.7,6,4.6,6,4.6
			c0.3-1.2,0.1-2.4-0.4-3.5l-0.7-0.7h0.6c-0.7-1.6-1.9-2.9-3.4-3.8c-0.3-0.2-0.6-0.4-0.9-0.5c2.3-3.1,3.7-8.3,4-11.1
			c0.4-3.5-0.8-9-0.8-9c1.2-0.1,4.3,1.4,4.3,1.4l0.8-2.7l0.1,3.2l3.1,1.7l1.5-2.8l-0.6,3.5l3,1.9l0.9-1.6l-0.2,2.6
			c0.8,0.8,4.3,4.2,5.1,5.7c0.3-13.5-8.3-18.1-8.3-18.1l0.8-0.4c-2-1.7-4.4-3-7-3.8l2.5-0.2l-0.6-2.1l1.9,2.2
			C199.6,42.6,205.8,49.5,205.8,49.5z M163.7,67.9c0.6-0.1,1.2-0.2,1.2-0.2l-1.3,0.5C163.6,68.1,163.6,68,163.7,67.9L163.7,67.9z
			 M161.2,74.8l0.1,0.4c0.8-0.3,3.1-0.7,3.1-0.7c-1.7,1-3.2,2.3-4.4,3.9C160.4,77.2,160.8,76,161.2,74.8z M156.6,90.5
			c1-4.2,2.2-8.2,3.4-12.1c0.9-0.1,3.1-0.3,3.1-0.3l1-1.4l-0.4,1.3c0.8-0.1,1.7-0.1,2.5,0c0.1,0.1,0.1,0.3,0.2,0.4
			C162.8,82.3,159.5,86.3,156.6,90.5z M162.4,71.3c0.4-1,0.8-2.1,1.2-3h0.2c0.5,0.1,1,0.4,1.4,0.7l1-0.5l-0.8,0.8
			c0.9,0.3,1.7,0.7,2.4,1.3C166.2,70.1,163.6,70.9,162.4,71.3z M167.6,66.2c-1-0.3-2-0.4-3-0.4c1-2.3,2.1-4.6,3.4-6.7
			C168,61.7,167.8,64.6,167.6,66.2z M179.7,65.2c0,0,0.2,5,0.3,6.2c0,0.3,0,0.6-0.1,0.9c-1-0.2-2-0.1-3,0.2v-0.7l-1.5-0.4l1.3-0.3
			c0.4-3.2-2.9-8.5-2.9-8.5c0.9,5.3-1.2,7.8-1.2,7.8c-0.8-1.9-2.4-3.4-4.3-4c1.6-2.2,3.2-6.5,4.4-9.9c0.9-0.7,1.3-1.8,1-2.9
			c0.3-1.1,0.5-1.8,0.5-1.8c0.5,0.1,1.9,4.2,1.9,4.2l2.4-1.3l-1.9,1.9c0.7,1.1,1.3,2.2,1.8,3.4l2.2-1.8l-2.3,3l1,2.2l2-2.2
			L179.7,65.2z"/>
	</g>
	<g id="Group_336">
		<rect id="Rectangle_611" x="23.3" y="149.9" class="st7" width="195.7" height="4.5"/>
	</g>
	<g id="Group_337">
		<path id="Path_565" class="st8" d="M23.3,137.6v-19.9c0-5.7,3-9.1,8.6-9.1s8.6,3.4,8.6,9.1v3.9H35v-4.3c0-2.4-1.2-3.4-2.9-3.4
			s-2.9,1-2.9,3.4V138c0,2.4,1.2,3.4,2.9,3.4c1.7,0,2.9-0.9,2.9-3.4v-5.7h5.5v5.2c0,5.7-3,9.1-8.6,9.1S23.3,143.3,23.3,137.6z"/>
		<path id="Path_566" class="st8" d="M43.6,137.4v-19.5c0-5.9,3.1-9.3,8.8-9.3s8.8,3.4,8.8,9.3v19.5c0,5.9-3.1,9.3-8.8,9.3
			S43.6,143.3,43.6,137.4z M55.5,137.8v-20.2c0-2.7-1.2-3.7-3-3.7s-3,1-3,3.7v20.2c0,2.6,1.2,3.6,3,3.6S55.5,140.4,55.5,137.8z"/>
		<path id="Path_567" class="st8" d="M65.2,109.1h5.8v31.8h9.6v5.3H65.2V109.1z"/>
		<path id="Path_568" class="st8" d="M83.4,109.1h5.8v31.8h9.6v5.3H83.4V109.1z"/>
		<path id="Path_569" class="st8" d="M101.6,109.1h5.8v37h-5.8V109.1z"/>
		<path id="Path_570" class="st8" d="M111.8,109.1h15.9v5.3h-10.1v9.8h8v5.3h-8v11.4h10.1v5.3h-15.9V109.1z"/>
		<path id="Path_571" class="st8" d="M131,109.1h8.6c6,0,8.6,2.8,8.6,8.5v2.3c0,3.8-1.2,6.2-3.8,7.3v0.1c2.9,0.9,3.9,3.6,3.9,7.8
			v6.5c-0.1,1.5,0.1,3.1,0.6,4.5h-6c-0.3-1-0.5-1.5-0.5-4.6v-6.8c0-3.4-1-4.6-3.6-4.6h-2v15.9H131V109.1z M139,125
			c2.2,0,3.5-1,3.5-3.9v-2.9c0-2.7-0.9-3.8-3-3.8h-2.6V125H139z"/>
		<path id="Path_572" class="st8" d="M160.8,109.1h15.9v5.3h-10.1v9.8h8v5.3h-8v11.4h10.1v5.3h-15.9V109.1z"/>
		<path id="Path_573" class="st8" d="M180,109.1h8.9c5.8,0,8.7,3.2,8.7,9.2V137c0,5.9-2.9,9.1-8.7,9.1H180V109.1z M188.8,140.9
			c1.9,0,3-0.9,3-3.6V118c0-2.7-1.1-3.6-3-3.6h-3v26.5L188.8,140.9z"/>
		<path id="Path_574" class="st8" d="M201.1,137.4v-19.5c0-5.9,3.1-9.3,8.8-9.3s8.8,3.4,8.8,9.3v19.5c0,5.9-3.1,9.3-8.8,9.3
			S201.1,143.3,201.1,137.4z M212.9,137.8v-20.2c0-2.7-1.2-3.7-3-3.7s-3,1-3,3.7v20.2c0,2.6,1.2,3.6,3,3.6S212.9,140.4,212.9,137.8z
			"/>
	</g>
</g>
</svg>
