<?xml version="1.0" encoding="utf-8"?>
<!-- Generator: Adobe Illustrator 24.0.3, SVG Export Plug-In . SVG Version: 6.00 Build 0)  -->
<svg version="1.1" id="Layer_1" xmlns="http://www.w3.org/2000/svg" xmlns:xlink="http://www.w3.org/1999/xlink" x="0px" y="0px"
	 viewBox="0 0 303.9 233.5" style="enable-background:new 0 0 303.9 233.5;" xml:space="preserve">
<style type="text/css">
	.st0{fill-rule:evenodd;clip-rule:evenodd;fill:#EA6D63;}
	.st1{fill:#FFFFFF;}
	.st2{fill-rule:evenodd;clip-rule:evenodd;fill:#FFFFFF;}
	.st3{fill:#175163;}
	.st4{fill:none;}
	.st5{fill:none;stroke:#EA6D63;stroke-width:1.367;stroke-miterlimit:10;}
	.st6{fill:#8ECAA5;}
</style>
<g id="Group_13" transform="translate(50.283 17.684)">
	<path id="Path_55" class="st0" d="M113.3,16.6c17.8,0,32.3,14.4,32.3,32.2c0,6.5-1.9,12.8-5.6,18.1V55.1l-34.1-11.4L87.7,54.6v13.9
		c-10.9-14.1-8.2-34.4,5.9-45.2C99.2,18.9,106.2,16.6,113.3,16.6L113.3,16.6z"/>
	<path id="Path_56" class="st1" d="M122.8,35.8c0.6-0.1,1.2,0,1.7,0.3c0.9,0.4,1.6,1,2.1,1.8c0.1,0.2,0,0.4-0.1,0.5
		c-0.9,0.6-1.9,1-3,1.1c0,0-0.1,0-0.1,0.1c0,0,0,0.1,0.1,0.1c2.9,1,6.1,0.4,8.6-1.5c0.1-0.1,0.3-0.2,0.5-0.2
		c2.2,0.4,4.2,1.7,5.3,3.7c0.5-1.7-0.2-3.6-1.7-4.6c-0.3-0.2-0.6-0.4-1-0.4h-2.6c0.1,0.2,0.2,0.4,0.2,0.6c0,0.2,0.1,0.3,0.1,0.3
		s0-0.1-0.1-0.3c-0.1-0.2-0.2-0.4-0.3-0.6l0,0h0c0,0,0,0,0,0c0,0-0.1-0.2-0.3-0.3c-0.7-0.2-1.4-0.2-2.1,0c0,0-0.7,0.2-1.7-0.9
		c-0.2-0.2-0.3-0.4-0.4-0.7c-0.1-0.3-0.6-0.8-2-0.5c-1.9,0.4-7.8,1.5-9.1,1.5C118.7,36.1,120.8,36.2,122.8,35.8z"/>
</g>
<g id="Group_14" transform="translate(40.927 29.26)">
	<path id="Path_57" class="st2" d="M100.5,43.8l0.3-0.2l14.5-8.4l30.4,10.1v6.4l0,0.1l-1.6,0.5v5l1.5,0.4v4l0,0.1l-1.6,0.5v5
		l1.5,0.4v4l0,0.1l-1.6,0.5v5.1l1.5,0.4v4l0,0.1l-1.6,0.5v3.6l-2.3-1.2v-3.7l-8-1.8l-12.9-2.9v3l0,0l-9.2,5.5V43.5l-1.6,0.9v41
		l-4.1,2.6V46.3l-1.6,0.9v14.4l-4.1-0.8L100.5,43.8L100.5,43.8z M147.4,88.5l-8.7-3.7v28.1l4.1-0.3l4.6,1.5V88.5z M136.8,84.2
		l-10.6-4.6v34.6l10.7-0.5L136.8,84.2L136.8,84.2z M106.2,90l18-10.4l0.2,33.6l-18.2-0.7L106.2,90L106.2,90z M107.8,91.5l15-8.1v1.7
		l-15,8.1V91.5L107.8,91.5z M102.8,107.1l-19.7-2.3v6.8c0,0,21.5,1.6,21.4,1.6c0,0,0.1-12.3,0.1-12.3V65l0,0l-21.5-4.7v5.6l19.8,3.7
		v5.3L94,73.3l-10.8-1.9v2.7l10.8,1.8l9,1.5v5.1l-9-1.4l-10.8-1.7v2.7l10.8,1.6l9,1.3v5.1l-9-1.2l-10.8-1.4v2.7l10.8,1.4l9,1.1v5.1
		l-9-1l-10.6-1.3l-0.1,2.8l19.6,2.7 M80.2,60.5L65.9,66v46c5.9,3.2,14.1,1.2,14.1,1.2L80.2,60.5L80.2,60.5z M142,50.7l-8-2.1
		l-12.9-3.4v6.1l12.9,3.3l8,2V50.7L142,50.7z M142,60.7l-8-2l-12.9-3.2v6.1l12.9,3.1l8,1.9V60.7L142,60.7z M142,70.7l-8-1.9
		l-12.9-3.1v6.1l12.9,3l8,1.8V70.7z"/>
	<path id="Path_58" class="st2" d="M149.1,60.5l0.1,52.7c0,0,8.2,2,14.1-1.2V66L149.1,60.5L149.1,60.5z"/>
	<path id="Path_59" class="st2" d="M147.7,59.4l0.1,25.2c1.7,0.5,3.5,0.3,5-0.6l3-21L147.7,59.4L147.7,59.4z"/>
	<rect id="Rectangle_13" x="155.7" y="60.5" class="st3" width="1.8" height="52.4"/>
	<rect id="Rectangle_14" x="136.8" y="83.2" class="st3" width="2" height="28.8"/>
	<rect id="Rectangle_15" x="147.1" y="84.3" class="st3" width="2.3" height="27.7"/>
	<rect id="Rectangle_16" x="124.1" y="78.9" class="st3" width="2.2" height="33.1"/>
</g>
<g>
	<path class="st4" d="M119.3,15C67.1,33,39.4,89.9,57.4,142.1c62.9-2.3,126.2-2.3,189.1,0c7.3-21.1,7.3-44.1,0-65.2
		C228.5,24.7,171.5-3,119.3,15z"/>
	<path class="st4" d="M151.9,4.4c58.1,0,105.2,47,105.2,105.1l0,0c0,9.6-1.3,19.1-3.9,28.4l2,0.1c5.3-19.2,5.2-39.5-0.4-58.7
		c-16.5-56.8-76-89.5-132.9-72.9C65.6,22.9,33,81.6,48.7,138c0.7,0,1.3-0.1,2-0.1c-2.6-9.2-3.9-18.7-3.9-28.3
		C46.8,51.6,93.8,4.5,151.9,4.4z"/>
	<polygon class="st1" points="12.6,141.9 12.6,141.9 12.6,141.9 	"/>
	<path class="st1" d="M52,142.4c-17.4,0.7-34.7,1.6-52,2.6h303.9c-17.3-1-34.6-1.9-52-2.6c0.3-0.8,0.5-1.6,0.7-2.4
		c12.9,0.2,25.8,0.9,38.7,1.9c-11-1.7-22.3-3-33.9-3.7C273.3,79.9,239,19.8,180.8,3.9C122.6-12,62.4,22.3,46.5,80.5
		c-5.2,18.9-5.2,38.8,0,57.7c-11.6,0.8-22.9,2.1-34,3.7c12.9-1.1,25.8-1.7,38.7-1.9C51.5,140.8,51.8,141.6,52,142.4z M246.5,142.1
		c-62.9-2.3-126.2-2.3-189.1,0C39.4,89.9,67.1,33,119.3,15c52.2-18,109.1,9.7,127.1,61.9C253.7,98.1,253.7,121,246.5,142.1z
		 M48.7,138C33,81.6,65.6,22.9,122,6.4c56.8-16.5,116.3,16.1,132.9,72.9c5.6,19.1,5.7,39.5,0.4,58.7l-2-0.1
		c2.6-9.2,3.9-18.8,3.9-28.4l0,0C257,51.5,209.9,4.4,151.9,4.4C93.8,4.5,46.8,51.6,46.8,109.6c0,9.6,1.3,19.1,3.9,28.3
		C50,138,49.4,138,48.7,138z"/>
</g>
<g id="Group_19" transform="translate(7.607 61.492)">
	<path id="Path_64" class="st1" d="M24.2,107.1v0.5c0,2.9-0.9,4.7-3,5.4v0.1c2.5,0.8,3.5,2.7,3.5,6.2v0.9c0.4,3.3-1.9,6.3-5.2,6.7
		c-0.5,0.1-1,0.1-1.4,0h-5.9v-26.4h5.6c3.2-0.3,6.1,2,6.4,5.2C24.3,106.1,24.3,106.6,24.2,107.1z M16.3,104.1v7.2h1.2
		c1.9,0,2.7-1,2.7-3.2v-0.9c0-2.1-0.8-3.1-2.5-3.1L16.3,104.1z M16.3,115v8.1H18c1.9,0,2.8-1,2.8-3.2v-1.5c0-2.3-0.9-3.4-3-3.4
		L16.3,115z"/>
	<path id="Path_65" class="st1" d="M40.1,120.9c0,3.4-2.8,6.2-6.2,6.2c-3.4,0-6.2-2.8-6.2-6.2c0,0,0,0,0,0v-20.5h3.8v20.4
		c0,1.9,0.9,2.6,2.3,2.6c1.4,0,2.3-0.7,2.3-2.6v-20.4h4L40.1,120.9z"/>
	<path id="Path_66" class="st1" d="M54.8,105.9v0.7L51,107v-1c0-1.5-0.7-2.3-2-2.3s-2,0.8-2,2.3v0.3c0,1.5,0.7,2.9,3.4,5.1
		c3.7,3.1,5,5.3,5,8.4v1.3c-0.2,3.4-3.1,6.1-6.5,5.9c-3.2-0.1-5.7-2.7-5.9-5.9v-1.8l3.8-0.4v1.9c0,1.7,0.8,2.5,2.3,2.5
		c1.5,0,2.3-0.8,2.3-2.5v-0.9c0-1.7-0.8-3-3.5-5.2c-3.7-3.1-4.9-5.3-4.9-8.4v-0.6c0-3.3,2.7-6,6-6S54.8,102.6,54.8,105.9L54.8,105.9
		z"/>
	<path id="Path_67" class="st1" d="M61.7,126.8h-4v-26.4h4V126.8z"/>
	<path id="Path_68" class="st1" d="M79,126.8h-3.9l-5.2-17.5h-0.1v17.5H66v-26.4h4.4l4.7,15.7h0.1v-15.7H79V126.8z"/>
	<path id="Path_69" class="st1" d="M94.5,104.1h-7.2v7.5h5.8v3.7h-5.8v7.8h7.2v3.7H83.3v-26.4h11.2L94.5,104.1z"/>
	<path id="Path_70" class="st1" d="M108.5,105.9v0.7l-3.8,0.4v-1c0-1.5-0.7-2.3-2-2.3s-2,0.8-2,2.3v0.3c0,1.5,0.7,2.9,3.4,5.1
		c3.7,3.1,5,5.3,5,8.4v1.3c-0.2,3.4-3.1,6.1-6.5,5.9c-3.2-0.1-5.7-2.7-5.9-5.9v-1.8l3.8-0.4v1.9c0,1.7,0.8,2.5,2.3,2.5
		c1.5,0,2.3-0.8,2.3-2.5v-0.9c0-1.7-0.8-3-3.5-5.2c-3.7-3.1-4.9-5.3-4.9-8.4v-0.6c0-3.3,2.7-6,6-6
		C105.8,100,108.5,102.6,108.5,105.9L108.5,105.9z"/>
	<path id="Path_71" class="st1" d="M122,105.9v0.7l-3.8,0.4v-1c0-1.5-0.7-2.3-2-2.3s-2,0.8-2,2.3v0.3c0,1.5,0.7,2.9,3.4,5.1
		c3.7,3.1,5,5.3,5,8.4v1.3c-0.2,3.4-3.1,6.1-6.5,5.9c-3.2-0.1-5.7-2.7-5.9-5.9v-1.8l3.8-0.4v1.9c0,1.7,0.8,2.5,2.3,2.5
		c1.5,0,2.3-0.8,2.3-2.5v-0.9c0-1.7-0.8-3-3.5-5.2c-3.7-3.1-4.9-5.3-4.9-8.4v-0.6c0-3.3,2.7-6,6-6C119.3,100,122,102.6,122,105.9
		L122,105.9z"/>
	<path id="Path_72" class="st1" d="M142.7,105.7v0.2c0,2.5-1,4.1-4.1,7.2l2.7,4.2h0.1v-3.9l3.5,0.2v4.3c0.1,1.3-0.2,2.7-0.6,3.9
		l3.2,4.9h-4.7l-0.8-1.2c-1.2,1.1-2.9,1.7-4.5,1.6c-3.3,0.3-6.2-2-6.5-5.3c0-0.4,0-0.8,0-1.1v-0.9c0-2.6,1.1-5,2.9-6.9
		c-1.5-2-2.3-4.4-2.4-6.8v-0.2c-0.2-3.1,2.2-5.7,5.3-5.9c3.1-0.2,5.7,2.2,5.9,5.3C142.7,105.4,142.7,105.6,142.7,105.7L142.7,105.7z
		 M136,116.2c-0.7,1.1-1,2.3-1,3.5v0.6c0,2.2,1.1,3.1,2.8,3.1c0.9,0,1.7-0.3,2.3-0.9L136,116.2L136,116.2z M135.3,105.9v0.2
		c0.1,1.4,0.6,2.8,1.3,4h0.1c1.7-1.9,2.2-2.8,2.2-4.1v-0.2c0-1.4-0.6-2.1-1.8-2.1S135.3,104.5,135.3,105.9L135.3,105.9z"/>
	<path id="Path_73" class="st1" d="M168.1,104.1h-7.2v7.5h5.8v3.7h-5.8v7.8h7.2v3.7h-11.2v-26.4h11.2V104.1z"/>
	<path id="Path_74" class="st1" d="M183.4,106.3v2.4l-3.8,0.2v-2.1c0-2.1-0.8-3.1-2.3-3.1s-2.3,0.9-2.3,2.7v14.4
		c0,1.7,0.8,2.7,2.3,2.7s2.3-0.9,2.3-3.1v-2.9l3.8,0.2v3.2c0.1,3.4-2.6,6.2-6.1,6.3s-6.2-2.6-6.3-6.1c0-0.1,0-0.2,0-0.3v-14.5
		c-0.1-3.4,2.6-6.2,6.1-6.3c3.4-0.1,6.2,2.6,6.3,6.1C183.4,106.2,183.4,106.3,183.4,106.3L183.4,106.3z"/>
	<path id="Path_75" class="st1" d="M199.4,106.7v13.8c0.1,3.6-2.7,6.5-6.3,6.6c-3.6,0.1-6.5-2.7-6.6-6.3c0-0.1,0-0.2,0-0.4v-13.8
		c-0.1-3.6,2.7-6.5,6.3-6.6c3.6-0.1,6.5,2.7,6.6,6.3C199.4,106.4,199.4,106.6,199.4,106.7z M190.5,106.7v13.7c0,2,0.9,3,2.4,3
		c1.6,0,2.5-1,2.5-3v-13.7c0-2-0.9-3-2.5-3C191.3,103.7,190.5,104.8,190.5,106.7L190.5,106.7z"/>
	<path id="Path_76" class="st1" d="M216.2,126.8h-3.9l-5.2-17.5H207v17.5h-3.8v-26.4h4.4l4.7,15.7h0.1v-15.7h3.8L216.2,126.8z"/>
	<path id="Path_77" class="st1" d="M233,106.7v13.8c0.1,3.6-2.7,6.5-6.3,6.6c-3.6,0.1-6.5-2.7-6.6-6.3c0-0.1,0-0.2,0-0.4v-13.8
		c-0.1-3.6,2.7-6.5,6.3-6.6c3.6-0.1,6.5,2.7,6.6,6.3C233,106.4,233,106.6,233,106.7z M224.1,106.7v13.7c0,2,0.9,3,2.5,3s2.5-1,2.5-3
		v-13.7c0-2-0.9-3-2.5-3S224.1,104.8,224.1,106.7L224.1,106.7z"/>
	<path id="Path_78" class="st1" d="M253.8,126.8h-4v-18.3h-0.1l-3.3,14.6h-2.4l-3.3-14.6h-0.1v18.3h-3.8v-26.4h5.2l3.1,14.2h0.1
		l3.1-14.2h5.4L253.8,126.8z"/>
	<path id="Path_79" class="st1" d="M262.1,126.8h-4v-26.4h4V126.8z"/>
	<path id="Path_80" class="st1" d="M278.4,106.3v2.4l-3.8,0.2v-2.1c0-2.1-0.8-3.1-2.3-3.1c-1.5,0-2.3,0.9-2.3,2.7v14.4
		c0,1.7,0.8,2.7,2.3,2.7c1.5,0,2.3-0.9,2.3-3.1v-2.9l3.8,0.2v3.2c0.1,3.4-2.6,6.2-6.1,6.3c-3.4,0.1-6.2-2.6-6.3-6.1
		c0-0.1,0-0.2,0-0.3v-14.5c-0.1-3.4,2.6-6.2,6.1-6.3c3.4-0.1,6.2,2.6,6.3,6.1C278.4,106.2,278.4,106.3,278.4,106.3L278.4,106.3z"/>
	<path id="Path_81" class="st1" d="M31.7,140.5v20.5c0,6.8-3.7,10.5-10.4,10.5h-9V130h9C28.1,130,31.7,133.7,31.7,140.5z
		 M18.6,135.8v29.8h2.5c3,0,4.4-1.6,4.4-5.1v-19.6c0-3.5-1.4-5.1-4.4-5.1L18.6,135.8z"/>
	<path id="Path_82" class="st1" d="M55.4,135.8H44.1v11.7h9.2v5.8h-9.2v12.3h11.3v5.8H37.8V130h17.6L55.4,135.8z"/>
	<path id="Path_83" class="st1" d="M73.6,171.4h-8.1l-7-41.4h6.4l4.7,31.6h0.1l4.6-31.6h6.3L73.6,171.4z"/>
	<path id="Path_84" class="st1" d="M102.6,135.8H91.3v11.7h9.2v5.8h-9.2v12.3h11.3v5.8H85V130h17.6V135.8z"/>
	<path id="Path_85" class="st1" d="M114.2,165.5h10.5v5.9H108V130h6.3L114.2,165.5z"/>
	<path id="Path_86" class="st1" d="M148.2,139.9v21.6c0.2,5.6-4.2,10.3-9.8,10.4c-5.6,0.2-10.3-4.2-10.4-9.8c0-0.2,0-0.4,0-0.6
		v-21.6c-0.2-5.6,4.2-10.3,9.8-10.4c5.6-0.2,10.3,4.2,10.4,9.8C148.2,139.5,148.2,139.7,148.2,139.9z M134.2,140v21.5
		c0,3.1,1.4,4.7,3.8,4.7s3.8-1.7,3.8-4.7V140c0-3.1-1.4-4.7-3.8-4.7S134.2,136.9,134.2,140z"/>
	<path id="Path_87" class="st1" d="M173.7,140.5v3.3c0,6.8-3.7,10.5-10.4,10.5h-2.8v17.1h-6.3V130h9
		C170,130,173.7,133.7,173.7,140.5z M160.5,135.8v12.6h2.5c3,0,4.4-1.6,4.4-5.1v-2.5c0-3.5-1.4-5.1-4.4-5.1L160.5,135.8z"/>
	<path id="Path_88" class="st1" d="M204.8,171.4h-6.3v-28.7h-0.1l-5.2,22.8h-3.7l-5.2-22.8h-0.1v28.7h-5.9V130h8.2l4.9,22.2h0.1
		l4.8-22.2h8.5L204.8,171.4z"/>
	<path id="Path_89" class="st1" d="M229.2,135.8h-11.3v11.7h9.2v5.8h-9.2v12.3h11.3v5.8h-17.6V130h17.6V135.8z"/>
	<path id="Path_90" class="st1" d="M254.9,171.4h-6.1l-8.2-27.4h-0.1v27.4h-5.9V130h7l7.4,24.6h0.1V130h5.9L254.9,171.4z"/>
	<path id="Path_91" class="st1" d="M278.5,135.9h-6.7v35.5h-6.3v-35.5h-6.7V130h19.6L278.5,135.9z"/>
	<line id="Line_2" class="st5" x1="98.2" y1="92.5" x2="278.4" y2="92.5"/>
	<g id="Group_18" transform="translate(0.009)">
		<path id="Path_92" class="st1" d="M17.5,89.8v1l-1.6,0.1V90c0-0.9-0.3-1.3-1-1.3s-1,0.4-1,1.1v6.1c0,0.7,0.3,1.1,1,1.1
			s1-0.4,1-1.3v-1.2l1.6,0.1v1.3c0,1.4-1.2,2.6-2.6,2.6s-2.6-1.2-2.6-2.6v-6.1c0-1.4,1.2-2.6,2.6-2.6S17.5,88.4,17.5,89.8L17.5,89.8
			z"/>
		<path id="Path_93" class="st1" d="M24.2,89.9v5.8c0.1,1.5-1.1,2.8-2.6,2.8c-1.5,0.1-2.8-1.1-2.8-2.6c0-0.1,0-0.2,0-0.2v-5.8
			c-0.1-1.5,1.1-2.8,2.6-2.8c1.5-0.1,2.8,1.1,2.8,2.6C24.2,89.8,24.2,89.9,24.2,89.9z M20.5,90v5.8c0,0.8,0.4,1.3,1,1.3s1-0.4,1-1.3
			V90c0-0.8-0.4-1.3-1-1.3S20.5,89.1,20.5,90L20.5,90z"/>
		<path id="Path_94" class="st1" d="M27.5,96.8h2.8v1.6h-4.5V87.3h1.7V96.8z"/>
		<path id="Path_95" class="st1" d="M33.1,96.8h2.8v1.6h-4.5V87.3h1.7L33.1,96.8z"/>
		<path id="Path_96" class="st1" d="M38.7,98.4H37V87.3h1.7V98.4z"/>
		<path id="Path_97" class="st1" d="M45.3,88.8h-3.1V92h2.5v1.6h-2.5v3.3h3.1v1.6h-4.7V87.3h4.7V88.8z"/>
		<path id="Path_98" class="st1" d="M50.5,98.4l-1.3-4.7h-0.8v4.7h-1.7V87.3h2.4c1.4-0.2,2.6,0.8,2.8,2.2c0,0.2,0,0.4,0,0.6v0.8
			c0.1,1-0.4,1.9-1.2,2.5l1.5,5.1L50.5,98.4z M48.4,88.8v3.3h0.7c0.8,0,1.2-0.4,1.2-1.4v-0.6c0-0.9-0.4-1.4-1.2-1.4L48.4,88.8z"/>
		<path id="Path_99" class="st1" d="M61.3,89.8v1l-1.6,0.1V90c0-0.9-0.3-1.3-1-1.3s-1,0.4-1,1.1v6.1c0,0.7,0.3,1.1,1,1.1
			s1-0.4,1-1.3v-1.2l1.6,0.1v1.3c0,1.4-1.2,2.6-2.6,2.6c-1.4,0-2.6-1.2-2.6-2.6v-6.1c0-1.4,1.2-2.6,2.6-2.6
			C60.2,87.2,61.3,88.4,61.3,89.8L61.3,89.8z"/>
		<path id="Path_100" class="st1" d="M68.1,89.9v5.8c0.1,1.5-1.1,2.8-2.6,2.8c-1.5,0.1-2.8-1.1-2.8-2.6c0-0.1,0-0.2,0-0.2v-5.8
			c-0.1-1.5,1.1-2.8,2.6-2.8c1.5-0.1,2.8,1.1,2.8,2.6C68.1,89.8,68.1,89.9,68.1,89.9z M64.3,90v5.8c0,0.8,0.4,1.3,1,1.3
			c0.7,0,1-0.4,1-1.3V90c0-0.8-0.4-1.3-1-1.3C64.7,88.7,64.3,89.1,64.3,90L64.3,90z"/>
		<path id="Path_101" class="st1" d="M74.8,95.9c0,1.4-1.2,2.6-2.6,2.6s-2.6-1.2-2.6-2.6v-8.6h1.6v8.6c0,0.8,0.4,1.1,1,1.1
			s1-0.3,1-1.1v-8.6h1.7L74.8,95.9z"/>
		<path id="Path_102" class="st1" d="M82,98.4h-1.7L78.2,91h0v7.4h-1.6V87.3h1.9l2,6.6h0v-6.6H82L82,98.4z"/>
		<path id="Path_103" class="st1" d="M88.4,88.9h-1.8v9.5h-1.7v-9.5h-1.8v-1.6h5.3L88.4,88.9z"/>
		<path id="Path_104" class="st1" d="M92.5,93.4v5h-1.7v-5l-2.3-6.1h1.8l1.4,3.9h0l1.3-3.9h1.7L92.5,93.4z"/>
	</g>
</g>
<g id="Group_20" transform="translate(10.172 8.869)">
	<path id="Path_105" class="st6" d="M112.5,54.5c-2.4-4.3-5.5-8.2-9.1-11.6l-2.4-2l-0.6-0.4l0,10.4c0.8,0.3,1.5,0.6,2.2,1l-0.1-3.6
		l1.5,4C106.9,52.7,109.7,53.5,112.5,54.5z M89,18.1c0,0-16.9-2.3-24.2,9.1c0,0-4.8-9.1,1.9-24.9c0,0-13.9,14.1-14.9,24.2l3.8,1.9
		l-4.8,0.3L50.4,31c-4.9-3-11-3.7-16.5-1.9c-5.2,1.7-9.8,4.8-13.2,9.1l1.8,0.4L20,40.2c-2.3,3-3.5,6.7-3.6,10.5
		c0,0,9.4-10.6,21.6-9.9l2.9-3.5l0,0L40,40.6l3.8,0.3c-3.9,1.2-7.6,3.2-10.7,5.8l1.2,0.6c0,0-13.2,7.1-12.6,27.9
		c2.4-3.1,5-6.1,7.8-8.8l-0.3-4l1.5,2.4l4.5-2.9l-0.9-5.4l2.3,4.4l4.8-2.7l0.1-5l1.3,4.2c2.1-1.1,4.3-1.8,6.6-2.1
		c-1,4.6-1.4,9.2-1.1,13.9c0.8,6.1,3,11.9,6.3,17c-0.5,0.2-1,0.5-1.4,0.8c-2.3,1.4-4.1,3.4-5.2,5.8l0.9,0l-1,1.1
		c-0.7,1.7-0.9,3.6-0.5,5.4c2-3.5,5.3-6.1,9.2-7.1l1-2l0,0l-0.1,1.6l1.8-0.3c-1.7,1-3.2,2.4-4.4,4l0.6,0.1c0,0-5.4,4.9-2.8,14.7
		c0.8-1.8,1.7-3.4,2.7-5.1l-0.6-1.9l1,1l1.8-1.9l-1-2.5l1.6,1.8l2-1.8l-0.5-2.4l1.1,1.8c0.9-0.7,1.8-1.3,2.9-1.8
		c0,2.3,0.4,4.5,1,6.7c0.9,2.5,3.9,7.7,6.8,8.4c-0.6-0.6-1-1.4-1.3-2.2c-0.2-1-0.9-4.6-0.9-4.6l-2-2.5l1.8,1.2l0.3-1.8l-2.2-1.8
		l2,0.9c0.1-1,0.4-1.9,0.7-2.8l-1.7-1.1l2,0.5c0.1-1.2,0.3-2.3,0.6-3.4c0,0,0.3,0.5,0.7,1.2c0,0.2,0,0.4,0.1,0.6
		c0.2,0.6,0.6,1.1,1.2,1.4c1.5,2.7,3.4,5.1,5.8,7c0,0-1.1-3.1-1.9-6c6.6,6.4,13.9,20.5,19.4,32.1l-0.3-45C85,74.8,80.6,60,78.6,56.5
		c0.3-0.3,0.6-0.7,0.9-1.1c2.6,0.3,5.2,0.9,7.6,1.9l-0.3-4.4l1.9,5c0,0,3.3,1,6.2,2l4.9,1.6c-3.7-5.6-7.9-10.8-12.5-15.7
		c0,0,10.3,3.6,13.2,5.1l0-10.4c-3.8-2.3-16.1-9.4-20.5-9.2c2.7-1.1,5.5-1.8,8.4-2.2l-2.1-3l2.6,2.1c1.5-0.6,3.1-1,4.8-1.1
		c2.4-0.1,0.6-0.2,0.6-0.2l-3.7-2.5c1.9,1,4,1.8,6.1,2.3c1-0.2,2-0.2,3.1-0.3l9.1-1C102.6,22.1,95.9,19.6,89,18.1L89,18.1z
		 M67.6,82.5c0,0-3.3-3.8-1.9-12c0,0-5,8.3-4.3,13.2l2,0.5l-2.2,0.7l0.1,1.1c-1.5-0.5-3.1-0.6-4.7-0.3c-0.1-0.5-0.1-0.9-0.1-1.4
		c0.2-2,0.4-9.6,0.4-9.6l-2.7-6l3.1,3.3l1.5-3.4l-3.5-4.5l3.5,2.7c0.7-1.8,1.6-3.6,2.7-5.3l-2.9-2.9l3.7,1.9c0,0,2.1-6.3,2.9-6.5
		c0,0,0.3,1.1,0.8,2.8c-0.1,0.4-0.2,0.8-0.2,1.2c0,1.3,0.6,2.5,1.6,3.3c1.7,5.3,3.9,10.4,6.8,15.2C71.1,77.4,68.7,79.6,67.6,82.5z
		 M92.6,113.3c-4.6-6.5-9.7-12.7-15.1-18.5c0.1-0.2,0.2-0.4,0.3-0.6c1.3-0.2,2.6-0.2,3.8,0l-0.6-2.1l1.5,2.1c0,0,3.6,0.3,4.9,0.4
		C89.1,100.7,90.9,107,92.6,113.3L92.6,113.3z M85.4,89.2c0.6,1.8,1.2,3.6,1.8,5.5c-1.9-2.4-4.3-4.4-6.9-5.9c0,0,3.6,0.7,4.8,1.1
		L85.4,89.2z M83.5,83.9c-2.6-1-5.5-1.4-8.3-1.2c1.2-0.8,2.4-1.5,3.7-2l-1.3-1.2l1.5,0.7c0.7-0.5,1.4-0.8,2.2-1.1l0.3-0.1
		C82.2,80.7,82.9,82.3,83.5,83.9L83.5,83.9z M81.6,79.1L81.6,79.1l-2.1-0.8c0,0,1,0.2,1.9,0.3C81.5,78.8,81.5,78.9,81.6,79.1
		L81.6,79.1z M80,75.3c-0.7,0-1.3,0-2,0.1c-0.9,0.1-1.8,0.3-2.7,0.6c-0.2-2.4-0.6-6.8-0.7-11C76.6,68.3,78.4,71.8,80,75.3L80,75.3z"
		/>
	<path id="Path_106" class="st6" d="M186.7,52.8l1.5-4l0,3.6c0.7-0.4,1.4-0.7,2.2-1l0-10.4l-0.6,0.4l-2.4,2c-3.5,3.4-6.6,7.4-9,11.7
		C180.9,54,183.8,53.3,186.7,52.8z M181.7,26l9.1,1c1,0,2,0.1,3.1,0.3c2.1-0.5,4.1-1.3,6.1-2.3l-3.7,2.6c0,0-1.8,0.2,0.6,0.2
		c1.6,0.1,3.3,0.4,4.8,1.1l2.6-2.2l-2,3c2.9,0.4,5.7,1.1,8.4,2.1c-4.4-0.2-16.6,7-20.4,9.3l0,10.4c2.9-1.5,13.2-5.2,13.2-5.2
		c-4.6,4.9-8.8,10.1-12.4,15.7l4.9-1.7c2.9-1,6.2-2.1,6.2-2.1l1.9-5l-0.3,4.4c2.4-1,5-1.7,7.6-1.9c0.3,0.4,0.6,0.8,0.9,1.1
		c-2,3.5-6.1,21.8-16.9,29.7v44.9c5.5-11.7,12.7-25.3,19.2-31.8c-0.8,3-1.9,6.1-1.9,6.1c2.3-2,4.3-4.4,5.7-7.1
		c0.6-0.3,1-0.8,1.1-1.4c0-0.2,0.1-0.4,0.1-0.6c0.4-0.7,0.7-1.2,0.7-1.2c0.4,1.1,0.6,2.2,0.6,3.4l2-0.5l-1.7,1.1
		c0.3,0.9,0.6,1.9,0.7,2.8l1.9-0.9l-2.2,1.8l0.3,1.8l1.8-1.3l-2,2.5c0,0-0.7,3.7-0.9,4.6c-0.2,0.8-0.7,1.6-1.3,2.2
		c2.9-0.8,5.9-6,6.8-8.5c0.6-2.2,1-4.4,1-6.7c1,0.4,2,1,2.9,1.7l1.1-1.8l-0.5,2.4l2,1.8l1.6-1.8l-1,2.5l1.8,1.9l1-1l-0.6,1.9
		c1.1,1.6,2,3.3,2.8,5c2.5-9.9-2.9-14.7-2.9-14.7l0.6-0.1c-1.2-1.6-2.7-3-4.4-4l1.8,0.3l-0.1-1.6l0,0l1,2c3.9,1,7.2,3.6,9.2,7.1
		c0.4-1.8,0.2-3.7-0.6-5.4l-1-1.1l0.9,0c-1.2-2.4-3-4.4-5.3-5.8c-0.5-0.3-0.9-0.6-1.5-0.8c3.3-5.2,5.4-11,6.2-17
		c0.2-4.7-0.2-9.3-1.2-13.9c2.3,0.3,4.5,1,6.6,2.1l1.3-4.2l0.1,5l4.8,2.7l2.3-4.4l-0.9,5.4l4.6,2.9l1.4-2.4l-0.3,4
		c2.9,2.7,5.5,5.6,7.9,8.7c0.4-20.8-12.8-27.9-12.8-27.9l1.2-0.6c-3.1-2.7-6.8-4.6-10.7-5.8l3.8-0.3l-0.9-3.2l0,0l2.9,3.4
		c12.2-0.8,21.7,9.7,21.7,9.7c-0.1-3.8-1.4-7.4-3.7-10.5l-2.6-1.6l1.8-0.4c-3.4-4.3-8.1-7.4-13.3-9c-5.5-1.8-11.5-1.1-16.4,2
		l-0.4-2.2l-4.8-0.3l3.8-1.9c-1-10-15.1-24.1-15.1-24.1c6.8,15.7,2,24.9,2,24.9c-7.3-11.4-24.2-9-24.2-9
		C194.5,20.1,187.9,22.6,181.7,26z M216.7,76.8c2.9-4.8,5.1-9.9,6.7-15.3c1-0.8,1.6-2,1.6-3.3c0-0.4-0.1-0.8-0.2-1.2
		c0.5-1.7,0.8-2.8,0.8-2.8c0.8,0.2,2.9,6.5,2.9,6.5l3.7-1.9l-2.9,3c1.1,1.7,2,3.4,2.7,5.3l3.4-2.8l-3.5,4.6l1.6,3.4l3.1-3.4l-2.7,6
		c0,0,0.3,7.6,0.5,9.6c0,0.5,0,0.9-0.1,1.4c-1.6-0.2-3.2-0.1-4.7,0.4l0.1-1.1l-2.3-0.7l2-0.5c0.6-4.9-4.4-13.1-4.4-13.1
		c1.4,8.2-1.8,12.1-1.8,12.1C222.1,79.9,219.7,77.7,216.7,76.8L216.7,76.8z M203.7,95.2c1.3-0.2,4.8-0.5,4.8-0.5l1.5-2.2l-0.6,2.1
		c1.3-0.2,2.6-0.2,3.8-0.1c0.1,0.2,0.2,0.4,0.3,0.6c-5.5,5.8-10.5,12-15,18.6C200.1,107.5,201.8,101.2,203.7,95.2z M205.8,90.3
		c1.2-0.4,4.8-1.1,4.8-1.1c-2.6,1.6-4.9,3.6-6.9,6c0.6-1.9,1.2-3.7,1.8-5.5L205.8,90.3z M209.2,79.5l0.3,0.1c0.8,0.2,1.5,0.6,2.2,1
		l1.5-0.7l-1.3,1.2c1.3,0.5,2.6,1.2,3.7,2c-2.8-0.3-5.6,0.2-8.2,1.2C208,82.7,208.6,81.1,209.2,79.5L209.2,79.5z M209.5,79
		c0.9-0.1,1.9-0.4,1.9-0.4l-2,0.8h0L209.5,79z M216.2,65.4c-0.1,4.2-0.5,8.6-0.7,11c-0.9-0.3-1.8-0.5-2.7-0.6
		c-0.6-0.1-1.3-0.1-2-0.1C212.4,72.2,214.2,68.7,216.2,65.4L216.2,65.4z"/>
</g>
</svg>
